HIERARCHY
ROOT Hips
{
	OFFSET 0.00000 0.00000 0.00000
	CHANNELS 6 Xposition Yposition Zposition Zrotation Yrotation Xrotation 
	JOINT LHipJoint
	{
		OFFSET 0 0 0
		CHANNELS 3 Zrotation Yrotation Xrotation
		JOINT LeftUpLeg
		{
			OFFSET 1.29432 -1.88279 0.59910
			CHANNELS 3 Zrotation Yrotation Xrotation
			JOINT LeftLeg
			{
				OFFSET 2.63039 -7.22694 0.00000
				CHANNELS 3 Zrotation Yrotation Xrotation
				JOINT LeftFoot
				{
					OFFSET 2.70674 -7.43672 0.00000
					CHANNELS 3 Zrotation Yrotation Xrotation
					JOINT LeftToeBase
					{
						OFFSET 0.15066 -0.41394 2.09027
						CHANNELS 3 Zrotation Yrotation Xrotation
						End Site
						{
							OFFSET 0.00000 -0.00000 1.07518
						}
					}
				}
			}
		}
	}
	JOINT RHipJoint
	{
		OFFSET 0 0 0
		CHANNELS 3 Zrotation Yrotation Xrotation
		JOINT RightUpLeg
		{
			OFFSET -1.37068 -1.88279 0.59910
			CHANNELS 3 Zrotation Yrotation Xrotation
			JOINT RightLeg
			{
				OFFSET -2.57023 -7.06166 0.00000
				CHANNELS 3 Zrotation Yrotation Xrotation
				JOINT RightFoot
				{
					OFFSET -2.76461 -7.59570 0.00000
					CHANNELS 3 Zrotation Yrotation Xrotation
					JOINT RightToeBase
					{
						OFFSET -0.24175 -0.64785 2.19719
						CHANNELS 3 Zrotation Yrotation Xrotation
						End Site
						{
							OFFSET -0.00000 -0.00000 1.14803
						}
					}
				}
			}
		}
	}
	JOINT LowerBack
	{
		OFFSET 0 0 0
		CHANNELS 3 Zrotation Yrotation Xrotation
		JOINT Spine
		{
			OFFSET -0.03138 2.03983 -0.23106
			CHANNELS 3 Zrotation Yrotation Xrotation
			JOINT Spine1
			{
				OFFSET -0.00325 2.06238 -0.06878
				CHANNELS 3 Zrotation Yrotation Xrotation
				JOINT Neck
				{
					OFFSET 0 0 0
					CHANNELS 3 Zrotation Yrotation Xrotation
					JOINT Neck1
					{
						OFFSET -0.00002 1.75318 0.18090
						CHANNELS 3 Zrotation Yrotation Xrotation
						JOINT Head
						{
							OFFSET 0.08806 1.75856 -0.25387
							CHANNELS 3 Zrotation Yrotation Xrotation
							End Site
							{
								OFFSET 0.02554 1.78597 -0.10684
							}
						}
					}
				}
				JOINT LeftShoulder
				{
					OFFSET 0 0 0
					CHANNELS 3 Zrotation Yrotation Xrotation
					JOINT LeftArm
					{
						OFFSET 3.09657 1.33597 -0.04414
						CHANNELS 3 Zrotation Yrotation Xrotation
						JOINT LeftForeArm
						{
							OFFSET 5.34298 -0.00000 -0.00000
							CHANNELS 3 Zrotation Yrotation Xrotation
							JOINT LeftHand
							{
								OFFSET 3.67262 -0.00000 -0.00000
								CHANNELS 3 Zrotation Yrotation Xrotation
								JOINT LeftFingerBase
								{
									OFFSET 0 0 0
									CHANNELS 3 Zrotation Yrotation Xrotation
									JOINT LeftHandIndex1
									{
										OFFSET 0.59930 -0.00000 -0.00000
										CHANNELS 3 Zrotation Yrotation Xrotation
										End Site
										{
											OFFSET 0.48317 -0.00000 -0.00000
										}
									}
								}
								JOINT LThumb
								{
									OFFSET 0 0 0
									CHANNELS 3 Zrotation Yrotation Xrotation
									End Site
									{
										OFFSET 0.49055 -0.00000 0.49055
									}
								}
							}
						}
					}
				}
				JOINT RightShoulder
				{
					OFFSET 0 0 0
					CHANNELS 3 Zrotation Yrotation Xrotation
					JOINT RightArm
					{
						OFFSET -3.16460 1.32273 -0.23382
						CHANNELS 3 Zrotation Yrotation Xrotation
						JOINT RightForeArm
						{
							OFFSET -5.54967 -0.01834 0.03348
							CHANNELS 3 Zrotation Yrotation Xrotation
							JOINT RightHand
							{
								OFFSET -3.69401 -0.00000 0.00000
								CHANNELS 3 Zrotation Yrotation Xrotation
								JOINT RightFingerBase
								{
									OFFSET 0 0 0
									CHANNELS 3 Zrotation Yrotation Xrotation
									JOINT RightHandIndex1
									{
										OFFSET -0.63811 -0.00000 0.00000
										CHANNELS 3 Zrotation Yrotation Xrotation
										End Site
										{
											OFFSET -0.51446 -0.00000 0.00000
										}
									}
								}
								JOINT RThumb
								{
									OFFSET 0 0 0
									CHANNELS 3 Zrotation Yrotation Xrotation
									End Site
									{
										OFFSET -0.52232 -0.00000 0.52232
									}
								}
							}
						}
					}
				}
			}
		}
	}
}
MOTION
Frames: 8
Frame Time: .0083333
7.4331 10.41 11.9652 0 0 0 0 0 0 -21 0 0 0 0 0 0 0 0 0 0 0 0 0 0 21 0 0 0 0 0 0 0 0 0 0 0 0 0 0 0 0 0 0 0 0 0 0 -16 0 0 21 0 0 11 0 0 0 -8 0 0 0 0 0 0 0 0 0 0 0 0 0 0 0 0 0 0 0 0 8 0 0 0 0 0 0 0 0 0 0 0 0 0 0 0 0 0
7.4331 10.4100 11.9652 178.5840 -5.9337 161.7510 0.0000 0.0000 0.0000 11.7921 5.4439 -66.3365 25.4773 19.2650 106.2053 -1.3935 -24.0603 -4.8654 0.0395 -1.2834 -3.5290 0.0000 0.0000 0.0000 -8.3303 -4.3160 -72.9346 -27.3210 -18.6632 111.8746 -0.3627 9.5025 -11.7840 -0.0423 -1.3281 3.6521 5.3983 5.6111 38.8882 0.3823 2.2577 17.9065 -3.1359 -1.2680 1.0990 12.0901 19.3415 1.0768 -28.5296 24.3576 -14.8386 -9.4198 12.5192 0.8366 0.0000 -0.0000 0.0000 -84.6833 -57.0605 69.5811 37.5792 -46.5685 -16.6594 -0.0000 -0.0000 19.5068 15.3752 17.0763 4.6164 -7.1250 0.0000 -0.0000 -11.9659 47.2888 -0.6852 0.0000 -0.0000 0.0000 63.0033 55.3346 45.3715 -41.4336 48.8967 -19.5127 0.0000 -0.0000 -6.3022 -49.6929 24.6295 -26.1644 7.1250 -0.0000 -0.0000 -11.7708 4.6892 -12.9608
7.4344 10.4103 11.9682 178.7000 -6.0021 161.5180 0.0000 0.0000 0.0000 11.7424 5.3995 -66.1503 25.4324 19.2772 106.0693 -1.3059 -23.8940 -5.6275 0.1336 -2.3556 -6.4896 0.0000 0.0000 0.0000 -8.2179 -4.4737 -72.6488 -27.3096 -18.6675 111.8390 -0.3525 9.6010 -11.6966 -0.1590 -2.5692 7.0815 5.5066 5.6025 38.5331 0.4684 2.0934 18.3461 -3.0680 -1.3887 1.6928 12.0502 19.4293 0.9748 -28.8400 24.4095 -15.0902 -9.4946 12.5505 0.8380 0.0000 -0.0000 0.0000 -84.4042 -57.4930 69.1597 37.5795 -46.5686 -16.6595 -0.0000 -0.0000 19.5462 15.4523 17.1793 4.6677 -7.1250 0.0000 -0.0000 -11.9263 47.4026 -0.7168 0.0000 -0.0000 0.0000 62.6923 55.7891 45.2293 -41.5092 48.9391 -19.5697 0.0000 -0.0000 -6.3451 -49.7261 24.4885 -26.0691 7.1250 -0.0000 -0.0000 -11.8278 4.5286 -12.9955
7.4366 10.4141 11.9777 178.8520 -6.0372 161.2070 0.0000 0.0000 0.0000 11.9650 5.3127 -65.8519 25.4313 19.2775 106.0661 -1.3725 -24.0482 -5.0964 0.0694 -1.6991 -4.6749 0.0000 0.0000 0.0000 -8.0469 -4.5691 -72.2793 -27.2915 -18.6744 111.7825 -0.3580 9.4186 -11.6988 -0.0799 -1.8234 5.0177 5.7602 5.5235 38.7750 0.4553 1.9883 18.4691 -3.1840 -1.4562 1.7713 12.1644 19.4751 0.9236 -28.9947 24.4535 -15.1959 -9.5421 12.5694 0.8659 0.0000 -0.0000 0.0000 -84.3715 -57.5482 69.0538 37.5443 -46.5458 -16.6340 -0.0000 -0.0000 19.7207 15.3831 17.0626 4.6153 -7.1250 0.0000 -0.0000 -11.9542 47.2762 -0.6807 0.0000 -0.0000 0.0000 62.8616 55.8868 45.2052 -41.5645 48.9700 -19.6114 0.0000 -0.0000 -6.2626 -49.7216 24.4498 -26.0320 7.1250 -0.0000 -0.0000 -11.8358 4.4780 -12.9950
7.4360 10.4102 11.9772 178.8330 -5.9353 161.2910 0.0000 0.0000 0.0000 12.1298 5.4031 -65.9423 25.4578 19.2703 106.1462 -1.4549 -24.1915 -4.3411 0.0153 -0.7988 -2.1955 0.0000 0.0000 0.0000 -8.0548 -4.3424 -72.4041 -27.2959 -18.6727 111.7961 -0.3530 9.3877 -11.6291 -0.1793 -2.7276 7.5212 5.8597 5.4494 39.0371 0.2565 2.0322 18.2088 -3.4465 -1.3926 1.4170 12.3558 19.4660 0.9448 -28.8307 24.4891 -15.0796 -9.5073 12.5755 0.9000 -0.0000 0.0000 0.0000 -84.1838 -57.2482 69.1226 37.5495 -46.5492 -16.6378 -0.0000 -0.0000 19.7558 15.2910 16.9528 4.5579 -7.1250 0.0000 -0.0000 -12.0055 47.1535 -0.6469 -0.0000 0.0000 0.0000 63.4591 55.5446 45.4499 -41.6493 49.0172 -19.6754 0.0000 -0.0000 -6.0697 -49.8058 24.3478 -26.0105 7.1250 -0.0000 -0.0000 -11.9102 4.3906 -13.0634
7.4343 10.4102 11.9710 178.8990 -5.7779 161.5880 0.0000 0.0000 0.0000 12.3039 5.5842 -66.2414 25.4776 19.2649 106.2064 -1.4801 -24.2579 -4.1454 0.0085 -0.5946 -1.6341 0.0000 0.0000 0.0000 -7.9222 -4.0686 -72.7260 -27.2959 -18.6727 111.7961 -0.3735 9.1228 -11.7856 -0.0591 -1.5693 4.3168 5.7361 5.5642 38.1555 0.3831 2.0771 18.4847 -3.2790 -1.3697 1.9838 12.1388 19.5791 0.7374 -28.9617 24.6134 -15.0721 -9.4735 12.6297 0.9518 -0.0000 0.0000 0.0000 -84.1575 -57.5331 68.8601 37.5250 -46.5332 -16.6200 -0.0000 -0.0000 19.7814 15.1859 16.7956 4.4846 -7.1250 0.0000 -0.0000 -12.0544 46.9818 -0.5979 -0.0000 0.0000 0.0000 63.1186 55.8274 45.3171 -41.7476 49.0719 -19.7497 0.0000 -0.0000 -6.0098 -49.7000 24.1145 -25.7228 7.1250 -0.0000 -0.0000 -11.9149 4.0461 -13.0020
7.4341 10.4089 11.9723 178.8720 -5.8688 161.4890 0.0000 0.0000 0.0000 12.1237 5.4718 -66.1496 25.4647 19.2684 106.1673 -1.3931 -24.0692 -4.8852 0.0584 -1.5598 -4.2906 0.0000 0.0000 0.0000 -7.9824 -4.2070 -72.6172 -27.3009 -18.6708 111.8118 -0.3637 9.2764 -11.7187 -0.1246 -2.2759 6.2687 5.8229 5.4495 38.6070 0.3063 2.0242 18.2782 -3.3782 -1.3845 1.6193 12.1516 19.6055 0.4813 -28.7860 24.7350 -14.5984 -9.3490 12.6516 1.1223 -0.0000 -0.0000 0.0000 -84.1357 -57.2854 68.8741 37.5160 -46.5274 -16.6135 -0.0000 -0.0000 19.8030 15.1937 16.6293 4.4441 -7.1250 0.0000 -0.0000 -11.9963 46.8162 -0.5453 -0.0000 -0.0000 0.0000 63.2363 55.6439 45.4798 -41.7373 49.0661 -19.7418 0.0000 -0.0000 -6.0851 -49.5661 24.1807 -25.6745 7.1250 -0.0000 -0.0000 -11.8225 4.0652 -12.9005
7.4366 10.3982 11.9747 178.4850 -6.0939 161.2160 0.0000 0.0000 0.0000 11.5065 5.2225 -65.8481 25.4369 19.2760 106.0830 -1.2730 -23.7588 -5.7953 0.1694 -2.6517 -7.3106 0.0000 0.0000 0.0000 -8.5499 -4.3849 -72.3715 -27.3321 -18.6590 111.9092 -0.3587 9.3998 -11.7014 -0.0614 -1.5995 4.4000 5.4105 5.6124 38.7716 0.3515 1.9742 18.4806 -3.1091 -1.4845 1.7582 12.2778 19.5542 0.4578 -29.0419 24.6225 -14.7630 -9.4593 12.5964 1.1192 0.0000 -0.0000 0.0000 -84.1868 -57.6040 68.9200 37.4505 -46.4847 -16.5659 -0.0000 -0.0000 19.7285 15.2254 16.8682 4.5156 -7.1250 0.0000 -0.0000 -12.0403 47.0599 -0.6207 0.0000 -0.0000 0.0000 63.0088 55.9067 45.3393 -41.6243 49.0033 -19.6565 0.0000 -0.0000 -6.2533 -49.7174 24.4503 -26.0290 7.1250 -0.0000 -0.0000 -11.8333 4.4765 -12.9918
